<svg
  focusable="false"
  width="73"
  height="18"
  viewBox="0 0 73 18"
  xmlns="http://www.w3.org/2000/svg"
>
  <symbol id="logo" fill="currentColor" viewBox="0 0 73 18">
    <path
      d="M15.915,0H2.274C1.018,0,0,1.007,0,2.25v13.5C0,16.993,1.018,18,2.274,18h13.642
    c1.256,0,2.274-1.007,2.274-2.25V2.25C18.189,1.007,17.171,0,15.915,0z M11.519,3.3c0-0.331,0.272-0.6,0.606-0.6
    s0.606,0.269,0.606,0.6v8.016c0,0.331-0.272,0.6-0.606,0.6s-0.606-0.269-0.606-0.6V3.3z M8.488,2.996
    c0-0.331,0.272-0.6,0.606-0.6s0.606,0.269,0.606,0.6v8.7c0,0.331-0.272,0.6-0.606,0.6s-0.606-0.269-0.606-0.6V2.996z M5.457,3.3
    c0-0.331,0.272-0.6,0.606-0.6c0.335,0,0.606,0.269,0.606,0.6v8.016c0,0.331-0.271,0.6-0.606,0.6c-0.335,0-0.606-0.269-0.606-0.6
    V3.3z M2.426,4.5c0-0.331,0.271-0.6,0.606-0.6c0.335,0,0.606,0.269,0.606,0.6v5.396c0,0.331-0.272,0.6-0.606,0.6
    c-0.335,0-0.606-0.269-0.606-0.6V4.5z M15.552,13.652c-0.093,0.08-2.339,1.945-6.457,1.945c-4.118,0-6.364-1.865-6.457-1.945
    c-0.254-0.215-0.284-0.594-0.066-0.846c0.217-0.251,0.599-0.281,0.853-0.066c0.035,0.029,2.041,1.657,5.67,1.657
    c3.674,0,5.649-1.639,5.668-1.655c0.254-0.216,0.637-0.187,0.854,0.065C15.835,13.058,15.806,13.436,15.552,13.652z
      M15.764,9.896c0,0.331-0.272,0.6-0.606,0.6c-0.335,0-0.606-0.269-0.606-0.6V4.5c0-0.331,0.271-0.6,0.606-0.6
    c0.335,0,0.606,0.269,0.606,0.6V9.896z"
    />
    <path
      d="M25.235,11.602c0,0.3-0.23,0.547-0.556,0.547c-0.318,0-0.547-0.247-0.547-0.547V6.384c0-0.3,0.23-0.547,0.556-0.547
  c0.318,0,0.547,0.247,0.547,0.547V11.602z"
    />
    <path
      d="M32.369,6.384v4.768c0,0.645-0.344,1.007-0.892,1.007h-0.044c-0.521,0-0.768-0.3-0.989-0.742l-1.113-2.163L28.343,7.02
  l0.026,2.163l0.009,2.411c0,0.3-0.23,0.547-0.556,0.547c-0.318,0-0.547-0.247-0.547-0.547V6.825c0-0.592,0.344-1.007,0.945-1.007
  h0.044c0.556,0,0.786,0.3,1.007,0.742l1.095,2.146l0.936,2.084l-0.026-1.996l-0.009-2.411c0-0.3,0.23-0.547,0.556-0.547
  C32.14,5.836,32.369,6.084,32.369,6.384z"
    />
    <path
      d="M36.793,11.593c0,0.3-0.23,0.547-0.556,0.547c-0.318,0-0.547-0.247-0.547-0.547V6.869h-1.369
  c-0.283,0-0.512-0.212-0.512-0.521c0-0.3,0.23-0.512,0.512-0.512h3.841c0.283,0,0.512,0.212,0.512,0.521
  c0,0.3-0.23,0.512-0.512,0.512h-1.369V11.593z"
    />
    <path
      d="M40.113,11.417V6.516c0-0.459,0.256-0.715,0.724-0.698h3.179c0.283,0,0.512,0.221,0.512,0.521s-0.23,0.512-0.512,0.512
  h-2.808v1.519h2.481c0.274,0,0.494,0.203,0.494,0.494c0,0.291-0.221,0.494-0.494,0.494h-2.481v1.748h2.808
  c0.283,0,0.512,0.221,0.512,0.521c0,0.3-0.23,0.512-0.512,0.512h-3.205C40.351,12.141,40.095,11.885,40.113,11.417z"
    />
    <path
      d="M50.797,11.426c0.15,0.256,0.053,0.583-0.256,0.742c-0.3,0.15-0.627,0.035-0.777-0.221l-1.227-2.269h-1.166l0.009,1.925
  c0,0.3-0.23,0.547-0.556,0.547c-0.318,0-0.547-0.247-0.547-0.547V6.516c0-0.459,0.256-0.715,0.724-0.698h2.093
  c1.439,0,2.04,0.936,2.04,1.89c0,0.909-0.53,1.581-1.439,1.757L50.797,11.426z M47.371,8.68h1.748c0.592,0,0.901-0.38,0.901-0.918
  s-0.327-0.909-0.909-0.909h-1.739V8.68z"
    />
    <path
      d="M53.411,11.673c-0.662-0.592-0.962-1.519-0.962-2.684c0-1.174,0.291-2.093,0.945-2.675
  c0.406-0.353,0.954-0.592,1.748-0.592c0.698,0,1.236,0.159,1.642,0.503c0.353,0.283,0.609,0.68,0.759,1.236
  c0.079,0.291-0.124,0.583-0.459,0.645c-0.318,0.053-0.574-0.15-0.671-0.441c-0.106-0.283-0.247-0.486-0.415-0.627
  c-0.23-0.203-0.512-0.291-0.883-0.291c-0.397,0-0.742,0.115-0.998,0.371c-0.371,0.371-0.53,1.033-0.53,1.872
  c0,0.83,0.15,1.492,0.539,1.863c0.256,0.256,0.592,0.371,0.98,0.371c0.406,0,0.715-0.106,0.971-0.344
  c0.132-0.124,0.247-0.283,0.327-0.468c0.115-0.274,0.353-0.477,0.662-0.406c0.309,0.071,0.503,0.371,0.406,0.662
  c-0.159,0.486-0.433,0.874-0.804,1.139c-0.406,0.291-0.909,0.441-1.545,0.441C54.311,12.247,53.799,12.008,53.411,11.673z"
    />
    <path
      d="M58.788,8.989c0-1.978,0.812-3.267,2.728-3.267c1.898,0,2.72,1.254,2.72,3.267c0,2.04-0.83,3.267-2.72,3.267
  C59.592,12.256,58.788,11.028,58.788,8.989z M63.106,8.989c0-1.501-0.547-2.234-1.598-2.234c-1.033,0-1.581,0.733-1.581,2.234
  s0.53,2.234,1.581,2.234C62.55,11.223,63.106,10.49,63.106,8.989z"
    />
    <path
      d="M72.801,11.593c0,0.3-0.23,0.547-0.556,0.547c-0.318,0-0.547-0.247-0.547-0.547V9.227l0.026-2.305l-0.768,2.34
  l-0.777,2.305c-0.132,0.406-0.406,0.565-0.751,0.565c-0.362,0-0.627-0.168-0.768-0.574l-0.795-2.296l-0.733-2.305l0.026,2.269
  v2.366c0,0.3-0.23,0.547-0.556,0.547c-0.318,0-0.547-0.247-0.547-0.547V6.869c0-0.653,0.353-1.033,0.971-1.033
  c0.583,0,0.909,0.309,1.095,0.874l0.812,2.411l0.494,1.642l0.503-1.642l0.812-2.411c0.185-0.565,0.503-0.874,1.086-0.874
  c0.618,0,0.962,0.371,0.962,1.033L72.801,11.593z"
    />
  </symbol>
</svg>
