<?xml version="1.0" encoding="UTF-8"?>
<svg
  width="22px"
  height="24px"
  viewBox="0 0 22 24"
  version="1.1"
  xmlns="http://www.w3.org/2000/svg"
  xmlns:xlink="http://www.w3.org/1999/xlink"
>
  <g id="Page-1" stroke="none" stroke-width="1" fill="none" fill-rule="evenodd">
    <g id="speaker" transform="translate(0.000000, 0.914214)">
      <path
        d="M6,16.0857864 L1,16.0857864 C0.44771525,16.0857864 6.76353751e-17,15.6380712 0,15.0857864 L0,7.08578644 C-6.76353751e-17,6.53350169 0.44771525,6.08578644 1,6.08578644 L6,6.08578644 L11.7928932,0.292893219 C11.9804296,0.10535684 12.2347835,-2.30926389e-14 12.5,-2.30926389e-14 C13.0522847,-2.30926389e-14 13.5,0.44771525 13.5,1 L13.5,21.1715729 C13.5,21.4367894 13.3946432,21.6911433 13.2071068,21.8786797 C12.8165825,22.2692039 12.1834175,22.2692039 11.7928932,21.8786797 L6,16.0857864 Z"
        id="-"
        fill="currentColor"
      ></path>
      <path
        d="M16,6.08578644 C16.6666667,7.7524531 17,9.41911977 17,11.0857864 C17,12.7524531 16.6666667,14.4191198 16,16.0857864"
        id="-"
        stroke="currentColor"
        stroke-width="2"
        stroke-linecap="round"
        stroke-linejoin="round"
      ></path>
      <path
        d="M19,3.08578644 C20.3333333,5.41911977 21,8.08578644 21,11.0857864 C21,14.0857864 20.3333333,16.7524531 19,19.0857864"
        id="-"
        stroke="currentColor"
        stroke-width="2"
        stroke-linecap="round"
        stroke-linejoin="round"
      ></path>
    </g>
  </g>
</svg>
